<?xml version="1.0" standalone="no"?><!-- Generator: Adobe Fireworks CS6, Export SVG Extension by Aaron Beall (http://fireworks.abeall.com) . Version: 0.6.1  --><!DOCTYPE svg PUBLIC "-//W3C//DTD SVG 1.1//EN" "http://www.w3.org/Graphics/SVG/1.1/DTD/svg11.dtd"><svg id="Untitled-Page%201" viewBox="0 0 260 146" style="background-color:#ffffff00" version="1.1"	xmlns="http://www.w3.org/2000/svg" xmlns:xlink="http://www.w3.org/1999/xlink" xml:space="preserve"	x="0px" y="0px" width="260px" height="146px">	<g>		<g>			<g>				<path d="M 146.8856 80.0638 L 146.8856 63.5392 L 146.8856 43.6292 C 146.8856 43.6292 147.5681 37.5324 141.3523 31.5763 C 141.3523 31.5763 137.8439 28.999 137.8439 21.9602 L 137.8439 6.5285 L 138.3854 6.5285 L 138.3854 2.7357 L 137.5714 2.7357 C 137.5714 2.7357 137.8439 0.431 136.3635 0.0292 L 132.931 0.0292 L 132.931 0 L 129.2845 0 C 127.804 0.4083 128.0672 2.7065 128.0672 2.7065 L 127.2597 2.7065 L 127.2597 6.4993 L 127.7983 6.4993 L 127.7983 21.9339 C 127.7983 28.9726 124.2891 31.5471 124.2891 31.5471 C 118.0828 37.5061 118.7614 43.5942 118.7614 43.5942 L 118.7614 63.5318 L 118.7614 80.0638 L 146.8856 80.0638 Z" fill="#9c1328"/>				<path d="M 182.5774 7.168 C 182.5774 7.168 183.4667 5.0282 182.1506 4.2295 L 178.6478 3.2232 L 178.6412 3.2496 L 175.3379 2.3009 C 173.8044 2.2745 173.436 4.567 173.436 4.567 L 172.6519 4.3417 L 171.6094 7.9874 L 172.1303 8.1374 L 167.8903 22.9731 C 165.9568 29.7392 161.8769 31.2444 161.8769 31.2444 C 154.2633 35.2541 153.2454 41.2989 153.2454 41.2989 L 146.8856 63.5392 L 142.1597 80.0638 L 146.8856 80.0638 L 158.4392 80.0638 L 171.4224 80.0638 L 180.2865 49.0477 C 180.2865 49.0477 182.6122 43.3802 178.2821 35.9359 C 178.2821 35.9359 175.6217 32.492 177.5566 25.7229 L 181.7931 10.8873 L 182.3085 11.0343 L 183.353 7.3915 L 182.5774 7.168 Z" fill="#97b92b"/>				<path d="M 118.7614 63.5318 L 112.4066 41.2989 C 112.4066 41.2989 111.3873 35.2541 103.7739 31.2444 C 103.7739 31.2444 99.6951 29.7392 97.7574 22.9731 L 93.5207 8.1374 L 94.0411 7.9874 L 92.9997 4.3417 L 92.2148 4.567 C 92.2148 4.567 91.8433 2.2745 90.3101 2.3009 L 87.0057 3.2496 L 87.0003 3.2232 L 83.5012 4.2295 C 82.183 5.0282 83.0706 7.168 83.0706 7.168 L 82.295 7.3915 L 83.3394 11.0343 L 83.8545 10.8873 L 88.0944 25.7229 C 90.0262 32.492 87.3685 35.9359 87.3685 35.9359 C 83.0385 43.3802 85.3616 49.0477 85.3616 49.0477 L 94.2284 80.0638 L 107.209 80.0638 L 118.7614 80.0638 L 123.488 80.0638 L 118.7614 63.5318 Z" fill="#622340"/>				<path d="M 89.0081 61.8069 L 74.4031 47.1551 C 74.4031 47.1551 70.5901 42.3645 61.996 42.5579 C 61.996 42.5579 57.6971 43.2274 52.7346 38.2491 L 41.8607 27.3346 L 42.2402 26.9498 L 39.5687 24.2697 L 38.9924 24.8459 C 38.9924 24.8459 37.5608 23.0221 36.2296 23.7916 L 33.8014 26.2284 L 33.7835 26.2076 L 31.2059 28.7907 C 30.4417 30.1325 32.2501 31.5706 32.2501 31.5706 L 31.6827 32.1402 L 34.3569 34.8232 L 34.7376 34.4441 L 45.6114 45.3557 C 50.5744 50.3312 49.9095 54.6399 49.9095 54.6399 C 49.7197 63.2583 54.4962 67.0831 54.4962 67.0831 L 67.4351 80.0638 L 94.2284 80.0638 L 107.209 80.0638 L 89.0081 61.8069 Z" fill="#00609f"/>				<path d="M 234.4421 28.7907 L 232.0137 26.3576 L 232.0366 26.3369 L 229.4589 23.754 C 228.1221 22.9871 226.6905 24.8016 226.6905 24.8016 L 226.1194 24.232 L 223.448 26.9121 L 223.8262 27.2939 L 212.9492 38.2049 C 207.9855 43.1831 203.6933 42.5173 203.6933 42.5173 C 195.1017 42.3259 191.2861 47.1136 191.2861 47.1136 L 176.6398 61.8059 L 158.4392 80.0638 L 171.4224 80.0638 L 198.2186 80.0638 L 211.1556 67.0869 C 211.1556 67.0869 215.9312 63.2583 215.7348 54.6371 C 215.7348 54.6371 215.0708 50.3285 220.0335 45.3492 L 230.913 34.4383 L 231.2939 34.8232 L 233.9655 32.143 L 233.3949 31.565 C 233.3949 31.565 235.2095 30.1297 234.4421 28.7907 Z" fill="#3c642b"/>				<g>					<path d="M 29.5925 145.8048 L 26.5375 145.8048 L 26.5375 136.8724 L 29.5795 136.8724 C 31.815 136.8724 32.9589 138.4764 32.9589 141.3056 C 32.9589 144.1092 31.7764 145.8048 29.5925 145.8048 ZM 29.2541 138.6981 L 28.5651 138.6981 L 28.5651 143.9791 L 29.2025 143.9791 C 30.0994 143.9791 30.814 143.1312 30.814 141.3452 C 30.814 139.5459 30.2686 138.6981 29.2541 138.6981 Z" fill="#622340"/>					<path d="M 34.3993 145.8048 L 34.3993 136.8724 L 36.427 136.8724 L 36.427 145.8048 L 34.3993 145.8048 Z" fill="#622340"/>					<path d="M 38.246 145.8048 L 38.246 136.8724 L 43.6664 136.8724 L 43.6664 138.6716 L 40.2738 138.6716 L 40.2738 140.4191 L 43.1731 140.4191 L 43.1731 142.01 L 40.2738 142.01 L 40.2738 144.0056 L 43.7446 144.0056 L 43.7446 145.8048 L 38.246 145.8048 Z" fill="#622340"/>					<path d="M 54.2328 145.8698 L 52.347 145.8698 L 51.2689 140.2107 L 50.1116 145.8698 L 48.2532 145.8698 L 46.407 136.8724 L 48.5644 136.8724 L 49.306 142.7399 L 50.4624 136.8724 L 52.1656 136.8724 L 53.2703 142.7399 L 54.0637 136.8724 L 56.1431 136.8724 L 54.2328 145.8698 Z" fill="#622340"/>					<path d="M 57.05 145.8048 L 57.05 136.8724 L 62.4708 136.8724 L 62.4708 138.6716 L 59.078 138.6716 L 59.078 140.4191 L 61.9773 140.4191 L 61.9773 142.01 L 59.078 142.01 L 59.078 144.0056 L 62.5488 144.0056 L 62.5488 145.8048 L 57.05 145.8048 Z" fill="#622340"/>					<path d="M 63.8856 145.8048 L 63.8856 136.8724 L 65.9135 136.8724 L 65.9135 145.8048 L 63.8856 145.8048 Z" fill="#622340"/>					<path d="M 72.0613 145.8048 L 69.7338 140.3795 L 69.7338 145.8048 L 67.7324 145.8048 L 67.7324 136.8724 L 69.8646 136.8724 L 72.1524 142.2836 L 72.1524 136.8724 L 74.1539 136.8724 L 74.1539 145.8048 L 72.0613 145.8048 Z" fill="#622340"/>					<path d="M 82.8871 145.8698 L 81.0016 145.8698 L 79.9233 140.2107 L 78.7659 145.8698 L 76.9074 145.8698 L 75.0612 136.8724 L 77.2186 136.8724 L 77.9604 142.7399 L 79.1166 136.8724 L 80.8201 136.8724 L 81.9247 142.7399 L 82.7181 136.8724 L 84.7975 136.8724 L 82.8871 145.8698 Z" fill="#622340"/>					<path d="M 85.7054 145.8048 L 85.7054 136.8724 L 91.1263 136.8724 L 91.1263 138.6716 L 87.7335 138.6716 L 87.7335 140.4191 L 90.6324 140.4191 L 90.6324 142.01 L 87.7335 142.01 L 87.7335 144.0056 L 91.2042 144.0056 L 91.2042 145.8048 L 85.7054 145.8048 Z" fill="#622340"/>					<path d="M 92.541 145.8048 L 92.541 136.8724 L 94.5951 136.8724 L 94.5951 143.9791 L 97.87 143.9791 L 97.87 145.8048 L 92.541 145.8048 Z" fill="#622340"/>					<path d="M 101.2348 138.6849 L 101.2348 145.8048 L 99.2068 145.8048 L 99.2068 138.6849 L 97.0881 138.6849 L 97.0881 136.8724 L 103.3536 136.8724 L 103.3536 138.6849 L 101.2348 138.6849 Z" fill="#622340"/>					<path d="M 108.525 138.6981 L 108.525 140.719 L 111.2682 140.719 L 111.2682 142.4401 L 108.525 142.4401 L 108.525 145.8048 L 106.4973 145.8048 L 106.4973 136.8724 L 111.8011 136.8724 L 111.8011 138.6981 L 108.525 138.6981 Z" fill="#622340"/>					<path d="M 119.1814 142.7794 C 119.1814 144.9315 118.0253 146 115.9711 146 C 113.9172 146 112.7601 144.9315 112.7601 142.7794 L 112.7601 136.8724 L 114.8139 136.8724 L 114.8139 142.806 C 114.8139 143.666 115.2307 144.1742 115.9711 144.1742 C 116.7119 144.1742 117.1285 143.666 117.1285 142.806 L 117.1285 136.8724 L 119.1814 136.8724 L 119.1814 142.7794 ZM 115.5164 136.1416 L 113.9304 136.1416 C 113.8908 135.9068 113.8655 135.5417 113.8655 135.3721 C 113.8655 135.1901 113.8785 134.8505 113.9172 134.5902 L 115.5164 134.5902 C 115.5294 134.8383 115.5678 135.1901 115.5678 135.3721 C 115.5678 135.5417 115.5427 135.9068 115.5164 136.1416 ZM 117.9474 136.1416 L 116.3613 136.1416 C 116.3221 135.9068 116.2963 135.5417 116.2963 135.3721 C 116.2963 135.1901 116.3088 134.8505 116.3483 134.5902 L 117.9474 134.5902 C 117.9607 134.8383 117.999 135.1901 117.999 135.3721 C 117.999 135.5417 117.9727 135.9068 117.9474 136.1416 Z" fill="#622340"/>					<path d="M 125.1201 145.8048 L 123.6902 142.8314 L 123.0011 142.8314 L 123.0011 145.8048 L 120.9734 145.8048 L 120.9734 136.8724 L 124.1318 136.8724 C 125.9652 136.8724 126.9017 138.1889 126.9017 139.8843 C 126.9017 141.3584 126.2642 142.1534 125.5486 142.5183 L 127.2784 145.8048 L 125.1201 145.8048 ZM 123.755 138.5935 L 123.0011 138.5935 L 123.0011 141.1622 L 123.7421 141.1622 C 124.3662 141.1622 124.7563 140.6927 124.7563 139.8194 C 124.7563 139.0499 124.431 138.5935 123.755 138.5935 Z" fill="#622340"/>					<path d="M 132.293 146 C 130.72 146 129.8619 145.2569 129.511 143.6924 L 131.3178 143.1964 C 131.4353 143.8622 131.6951 144.1742 132.1762 144.1742 C 132.6443 144.1742 132.9039 143.9526 132.9039 143.053 L 132.9039 136.8724 L 134.9316 136.8724 L 134.9316 143.0663 C 134.9316 145.3096 133.8917 146 132.293 146 Z" fill="#622340"/>					<path d="M 136.7111 145.8048 L 136.7111 136.8724 L 142.1318 136.8724 L 142.1318 138.6716 L 138.7388 138.6716 L 138.7388 140.4191 L 141.638 140.4191 L 141.638 142.01 L 138.7388 142.01 L 138.7388 144.0056 L 142.2097 144.0056 L 142.2097 145.8048 L 136.7111 145.8048 Z" fill="#622340"/>					<path d="M 146.6016 145.8048 L 143.5463 145.8048 L 143.5463 136.8724 L 146.5886 136.8724 C 148.824 136.8724 149.9681 138.4764 149.9681 141.3056 C 149.9681 144.1092 148.7854 145.8048 146.6016 145.8048 ZM 146.2631 138.6981 L 145.5742 138.6981 L 145.5742 143.9791 L 146.2116 143.9791 C 147.1086 143.9791 147.8227 143.1312 147.8227 141.3452 C 147.8227 139.5459 147.2776 138.6981 146.2631 138.6981 Z" fill="#622340"/>					<path d="M 151.4091 145.8048 L 151.4091 136.8724 L 156.8297 136.8724 L 156.8297 138.6716 L 153.4371 138.6716 L 153.4371 140.4191 L 156.3364 140.4191 L 156.3364 142.01 L 153.4371 142.01 L 153.4371 144.0056 L 156.9078 144.0056 L 156.9078 145.8048 L 151.4091 145.8048 Z" fill="#622340"/>					<path d="M 162.5736 145.8048 L 160.2458 140.3795 L 160.2458 145.8048 L 158.2444 145.8048 L 158.2444 136.8724 L 160.3765 136.8724 L 162.6646 142.2836 L 162.6646 136.8724 L 164.6661 136.8724 L 164.6661 145.8048 L 162.5736 145.8048 Z" fill="#622340"/>					<path d="M 173.3467 145.8048 L 173.2556 145.0353 C 172.9829 145.5049 172.5279 146 171.5398 146 C 169.3816 146 168.3418 144.1488 168.3418 141.3056 C 168.3418 138.7368 169.4211 136.6762 171.8256 136.6762 C 173.6975 136.6762 174.6338 137.7325 174.9843 139.2328 L 173.0347 139.6628 C 172.8523 138.9849 172.5928 138.5152 171.9039 138.5152 C 170.9026 138.5152 170.4871 139.4932 170.4871 141.332 C 170.4871 143.2745 170.8115 144.1619 171.9423 144.1619 C 172.8268 144.1619 173.0997 143.4707 173.0997 142.8577 L 173.0997 142.4278 L 171.9169 142.4278 L 171.9169 141.084 L 175.0756 141.084 L 175.0756 145.8048 L 173.3467 145.8048 Z" fill="#622340"/>					<path d="M 176.5806 145.8048 L 176.5806 136.8724 L 182.0011 136.8724 L 182.0011 138.6716 L 178.6086 138.6716 L 178.6086 140.4191 L 181.5074 140.4191 L 181.5074 142.01 L 178.6086 142.01 L 178.6086 144.0056 L 182.0789 144.0056 L 182.0789 145.8048 L 176.5806 145.8048 Z" fill="#622340"/>					<path d="M 186.095 146 C 184.5212 146 183.2222 145.3352 182.8321 143.9008 L 184.886 143.3274 C 185.1072 144.0311 185.5357 144.3572 186.173 144.3572 C 186.6403 144.3572 187.1085 144.0969 187.1085 143.4707 C 187.1085 142.8182 186.6799 142.5183 186.16 142.3495 L 185.4963 142.127 C 183.7806 141.58 183.1048 140.6671 183.1048 139.3365 C 183.1048 137.5505 184.4565 136.6762 186.1337 136.6762 C 187.6932 136.6762 188.812 137.3288 189.2142 138.7368 L 187.2646 139.3365 C 187.0567 138.6585 186.7183 138.3067 186.095 138.3067 C 185.5489 138.3067 185.2238 138.633 185.2238 139.18 C 185.2238 139.741 185.5875 140.0014 186.1337 140.1843 L 186.9006 140.4323 C 187.9921 140.7972 189.2538 141.267 189.2538 143.1708 C 189.2538 145.087 187.8754 146 186.095 146 Z" fill="#622340"/>					<path d="M 193.7491 146 C 191.3183 146 190.1741 144.1223 190.1741 141.3056 C 190.1741 138.7765 191.2402 136.6762 193.6964 136.6762 C 195.2571 136.6762 196.3619 137.4721 196.7385 139.2847 L 194.7625 139.6761 C 194.646 139.0111 194.3856 138.5152 193.736 138.5152 C 192.7086 138.5152 192.3195 139.6761 192.3195 141.332 C 192.3195 143.1708 192.7349 144.1619 193.7094 144.1619 C 194.4119 144.1619 194.6848 143.6924 194.8406 143.118 L 196.7904 143.5358 C 196.3879 145.1003 195.3999 146 193.7491 146 Z" fill="#622340"/>					<path d="M 202.378 145.8048 L 202.378 142.0364 L 200.1033 142.0364 L 200.1033 145.8048 L 198.0753 145.8048 L 198.0753 136.8724 L 200.1033 136.8724 L 200.1033 140.1456 L 202.378 140.1456 L 202.378 136.8724 L 204.4058 136.8724 L 204.4058 145.8048 L 202.378 145.8048 Z" fill="#622340"/>					<path d="M 212.0205 145.8048 L 212.0205 140.0673 L 210.6949 145.8048 L 209.5772 145.8048 L 208.1726 140.0276 L 208.1726 145.8048 L 206.2228 145.8048 L 206.2228 136.8724 L 208.8354 136.8724 L 210.1621 142.5051 L 211.3971 136.8724 L 213.9711 136.8724 L 213.9711 145.8048 L 212.0205 145.8048 Z" fill="#622340"/>					<path d="M 220.0646 145.8048 L 219.6755 144.2271 L 217.27 144.2271 L 216.919 145.8048 L 214.8781 145.8048 L 217.1139 136.8724 L 219.649 136.8724 L 222.1714 145.8048 L 220.0646 145.8048 ZM 218.3752 138.7632 L 217.6213 142.5183 L 219.246 142.5183 L 218.3752 138.7632 Z" fill="#622340"/>					<path d="M 226.0547 146 C 223.624 146 222.4797 144.1223 222.4797 141.3056 C 222.4797 138.7765 223.5458 136.6762 226.0021 136.6762 C 227.5629 136.6762 228.6672 137.4721 229.0444 139.2847 L 227.0681 139.6761 C 226.9517 139.0111 226.6911 138.5152 226.0417 138.5152 C 225.0143 138.5152 224.6248 139.6761 224.6248 141.332 C 224.6248 143.1708 225.0404 144.1619 226.0154 144.1619 C 226.7177 144.1619 226.9901 143.6924 227.1462 143.118 L 229.0959 143.5358 C 228.6936 145.1003 227.7056 146 226.0547 146 Z" fill="#622340"/>					<path d="M 234.5406 145.8048 L 232.4089 142.3495 L 232.4089 145.8048 L 230.3809 145.8048 L 230.3809 136.8724 L 232.4089 136.8724 L 232.4089 140.158 L 234.5673 136.8724 L 236.842 136.8724 L 233.8134 141.0971 L 236.9325 145.8048 L 234.5406 145.8048 Z" fill="#622340"/>					<path d="M 237.3469 145.8048 L 237.3469 143.8225 L 239.4782 143.8225 L 239.4782 145.8048 L 237.3469 145.8048 Z" fill="#622340"/>				</g>				<g>					<path d="M 0 96.8364 L 7.3243 96.8364 L 11.3355 107.8557 L 15.3469 96.8364 L 22.6907 96.8364 L 22.6907 125.6233 L 16.1486 125.6233 L 16.1486 114.851 C 16.1486 112.1276 16.2587 109.3617 16.4786 106.5552 L 15.9841 106.5552 C 15.6964 107.9453 15.1277 109.8568 14.2769 112.2926 L 11.3355 120.6913 L 8.4147 112.2926 C 7.5638 109.8436 6.9952 107.9311 6.7066 106.5552 L 6.1924 106.5552 C 6.4256 109.1552 6.5421 111.921 6.5421 114.851 L 6.5421 125.6233 L 0 125.6233 L 0 96.8364 Z" fill="#622340"/>					<path d="M 44.2417 96.3613 C 47.7115 96.3613 50.4473 97.6748 52.4496 100.303 C 54.4521 102.9302 55.4532 106.5214 55.4532 111.0753 C 55.4532 115.6422 54.4456 119.2852 52.4288 122.002 C 50.4134 124.7189 47.8007 126.0768 44.5918 126.0768 C 41.259 126.0768 38.6801 124.667 36.8567 121.8464 C 35.033 119.0268 34.1201 115.5112 34.1201 111.3015 C 34.1201 108.3856 34.5656 105.7677 35.4578 103.4498 C 36.3489 101.1319 37.5973 99.3712 39.2021 98.167 C 40.806 96.9628 42.4856 96.3613 44.2417 96.3613 ZM 44.962 102.4286 C 43.6176 102.4286 42.5892 103.2057 41.8759 104.7597 C 41.1629 106.3149 40.806 108.4404 40.806 111.1364 C 40.806 113.8741 41.1527 116.0242 41.8455 117.5859 C 42.5376 119.1475 43.4944 119.9273 44.7147 119.9273 C 45.9218 119.9273 46.8881 119.123 47.6157 117.5133 C 48.3425 115.9035 48.7051 113.7571 48.7051 111.0753 C 48.7051 108.296 48.3387 106.1602 47.6053 104.6673 C 46.8712 103.1745 45.9905 102.4286 44.962 102.4286 Z" fill="#622340"/>					<path d="M 66.7801 96.8364 L 73.5892 96.8364 L 76.8606 105.9573 C 77.8334 108.6676 78.5808 111.013 79.1024 112.9943 L 79.4522 112.9943 L 79.2877 108.1235 L 79.2877 96.8364 L 85.7054 96.8364 L 85.7054 125.6233 L 78.9174 125.6233 L 75.6469 116.5023 C 74.6721 113.7921 73.9257 111.4392 73.4039 109.4446 L 73.0334 109.4446 L 73.1978 114.3144 L 73.1978 125.6233 L 66.7801 125.6233 L 66.7801 96.8364 Z" fill="#622340"/>					<path d="M 98.1636 96.8364 L 106.5367 96.8364 C 109.0457 96.8364 111.131 97.4277 112.79 98.6102 C 114.4493 99.7938 115.6318 101.4789 116.3389 103.6668 C 117.0448 105.8536 117.3985 108.2679 117.3985 110.9102 C 117.3985 115.3537 116.4 118.9165 114.4053 121.5994 C 112.4092 124.2823 109.4847 125.6233 105.6315 125.6233 L 98.1636 125.6233 L 98.1636 96.8364 ZM 104.849 102.4286 L 104.849 119.9896 L 105.322 119.9896 C 108.7919 119.9896 110.5272 116.839 110.5272 110.5385 C 110.5272 108.1028 110.1534 106.1431 109.4055 104.6569 C 108.6585 103.1707 107.4344 102.4286 105.7338 102.4286 L 104.849 102.4286 Z" fill="#622340"/>					<path d="M 137.9822 96.3613 C 141.452 96.3613 144.1877 97.6748 146.1899 100.303 C 148.1923 102.9302 149.1935 106.5214 149.1935 111.0753 C 149.1935 115.6422 148.1856 119.2852 146.1691 122.002 C 144.1536 124.7189 141.5412 126.0768 138.3319 126.0768 C 134.9992 126.0768 132.4207 124.667 130.597 121.8464 C 128.7731 119.0268 127.8603 115.5112 127.8603 111.3015 C 127.8603 108.3856 128.3058 105.7677 129.1981 103.4498 C 130.0892 101.1319 131.338 99.3712 132.9423 98.167 C 134.5461 96.9628 136.2262 96.3613 137.9822 96.3613 ZM 138.7024 102.4286 C 137.3578 102.4286 136.3295 103.2057 135.616 104.7597 C 134.9036 106.3149 134.5461 108.4404 134.5461 111.1364 C 134.5461 113.8741 134.8932 116.0242 135.5859 117.5859 C 136.2776 119.1475 137.2347 119.9273 138.455 119.9273 C 139.6621 119.9273 140.6284 119.123 141.356 117.5133 C 142.0826 115.9035 142.4454 113.7571 142.4454 111.0753 C 142.4454 108.296 142.079 106.1602 141.3459 104.6673 C 140.6115 103.1745 139.7305 102.4286 138.7024 102.4286 Z" fill="#622340"/>					<path d="M 157.4651 96.8364 L 164.6445 96.8364 L 167.8124 115.7591 L 171.0838 96.8364 L 178.3657 96.8364 L 171.0838 125.6233 L 164.4594 125.6233 L 157.4651 96.8364 Z" fill="#622340"/>					<path d="M 189.189 96.8364 L 195.9368 96.8364 L 195.9368 125.6233 L 189.189 125.6233 L 189.189 96.8364 Z" fill="#622340"/>					<path d="M 208.3936 96.8364 L 215.2026 96.8364 L 218.4741 105.9573 C 219.447 108.6676 220.1943 111.013 220.7159 112.9943 L 221.0657 112.9943 L 220.9012 108.1235 L 220.9012 96.8364 L 227.3191 96.8364 L 227.3191 125.6233 L 220.531 125.6233 L 217.2604 116.5023 C 216.2855 113.7921 215.5392 111.4392 215.0174 109.4446 L 214.6468 109.4446 L 214.8116 114.3144 L 214.8116 125.6233 L 208.3936 125.6233 L 208.3936 96.8364 Z" fill="#622340"/>					<path d="M 248.7888 96.3613 C 252.2585 96.3613 254.9941 97.6748 256.9963 100.303 C 258.9987 102.9302 260 106.5214 260 111.0753 C 260 115.6422 258.9922 119.2852 256.9758 122.002 C 254.9602 124.7189 252.3474 126.0768 249.1384 126.0768 C 245.8058 126.0768 243.2269 124.667 241.4033 121.8464 C 239.5796 119.0268 238.6666 115.5112 238.6666 111.3015 C 238.6666 108.3856 239.1125 105.7677 240.0045 103.4498 C 240.8958 101.1319 242.1442 99.3712 243.7487 98.167 C 245.3526 96.9628 247.0327 96.3613 248.7888 96.3613 ZM 249.5089 102.4286 C 248.1646 102.4286 247.1359 103.2057 246.4224 104.7597 C 245.7098 106.3149 245.3526 108.4404 245.3526 111.1364 C 245.3526 113.8741 245.6996 116.0242 246.3923 117.5859 C 247.084 119.1475 248.0411 119.9273 249.2615 119.9273 C 250.4685 119.9273 251.4348 119.123 252.1625 117.5133 C 252.8893 115.9035 253.252 113.7571 253.252 111.0753 C 253.252 108.296 252.8854 106.1602 252.1521 104.6673 C 251.4178 103.1745 250.537 102.4286 249.5089 102.4286 Z" fill="#622340"/>				</g>			</g>		</g>	</g></svg>